<svg xmlns="http://www.w3.org/2000/svg" width="143.939" height="118.906" viewBox="0 0 143.939 118.906">
  <path id="Icon1" d="M132.422,123.906H13.516A12.517,12.517,0,0,1,1,111.39V17.516A12.517,12.517,0,0,1,13.516,5H132.422a12.517,12.517,0,0,1,12.516,12.516V111.39A12.517,12.517,0,0,1,132.422,123.906Zm6.258-106.39a6.26,6.26,0,0,0-6.258-6.258H13.516a6.26,6.26,0,0,0-6.258,6.258V36.291H138.681Zm0,25.033H7.258v68.84a6.26,6.26,0,0,0,6.258,6.258H132.422a6.261,6.261,0,0,0,6.258-6.258ZM126.164,86.357h-6.258a3.128,3.128,0,0,1-3.129-3.129V76.969a3.13,3.13,0,0,1,3.129-3.129h6.258a3.128,3.128,0,0,1,3.129,3.129v6.258A3.126,3.126,0,0,1,126.164,86.357Zm0-21.9h-6.258a3.128,3.128,0,0,1-3.129-3.129V55.066a3.128,3.128,0,0,1,3.129-3.129h6.258a3.126,3.126,0,0,1,3.129,3.129v6.258A3.126,3.126,0,0,1,126.164,64.453Zm-25.033,21.9H94.873a3.128,3.128,0,0,1-3.129-3.129V76.969a3.13,3.13,0,0,1,3.129-3.129h6.258a3.128,3.128,0,0,1,3.129,3.129v6.258A3.126,3.126,0,0,1,101.131,86.357Zm0-21.9H94.873a3.128,3.128,0,0,1-3.129-3.129V55.066a3.128,3.128,0,0,1,3.129-3.129h6.258a3.126,3.126,0,0,1,3.129,3.129v6.258A3.126,3.126,0,0,1,101.131,64.453ZM76.1,86.357H69.84a3.126,3.126,0,0,1-3.129-3.129V76.969A3.128,3.128,0,0,1,69.84,73.84H76.1a3.128,3.128,0,0,1,3.129,3.129v6.258A3.126,3.126,0,0,1,76.1,86.357Zm0-21.9H69.84a3.126,3.126,0,0,1-3.129-3.129V55.066a3.126,3.126,0,0,1,3.129-3.129H76.1a3.126,3.126,0,0,1,3.129,3.129v6.258A3.126,3.126,0,0,1,76.1,64.453ZM51.066,108.26H44.807a3.126,3.126,0,0,1-3.129-3.129V98.873a3.126,3.126,0,0,1,3.129-3.129h6.258a3.126,3.126,0,0,1,3.129,3.129v6.258A3.126,3.126,0,0,1,51.066,108.26Zm0-21.9H44.807a3.126,3.126,0,0,1-3.129-3.129V76.969a3.128,3.128,0,0,1,3.129-3.129h6.258a3.128,3.128,0,0,1,3.129,3.129v6.258A3.126,3.126,0,0,1,51.066,86.357Zm0-21.9H44.807a3.126,3.126,0,0,1-3.129-3.129V55.066a3.126,3.126,0,0,1,3.129-3.129h6.258a3.126,3.126,0,0,1,3.129,3.129v6.258A3.126,3.126,0,0,1,51.066,64.453ZM26.033,108.26H19.775a3.126,3.126,0,0,1-3.129-3.129V98.873a3.126,3.126,0,0,1,3.129-3.129h6.258a3.126,3.126,0,0,1,3.129,3.129v6.258A3.126,3.126,0,0,1,26.033,108.26Zm0-21.9H19.775a3.126,3.126,0,0,1-3.129-3.129V76.969a3.128,3.128,0,0,1,3.129-3.129h6.258a3.128,3.128,0,0,1,3.129,3.129v6.258A3.126,3.126,0,0,1,26.033,86.357ZM69.84,95.744H76.1a3.126,3.126,0,0,1,3.129,3.129v6.258A3.126,3.126,0,0,1,76.1,108.26H69.84a3.126,3.126,0,0,1-3.129-3.129V98.873A3.126,3.126,0,0,1,69.84,95.744Z" transform="translate(-1 -5)" fill="#fff" fill-rule="evenodd"/>
</svg>
