<svg xmlns="http://www.w3.org/2000/svg" width="74.879" height="132.479" viewBox="0 0 74.879 132.479">
  <path id="Icon3" d="M74.359,133.479H22.52A11.52,11.52,0,0,1,11,121.959V12.52A11.52,11.52,0,0,1,22.52,1H74.359a11.52,11.52,0,0,1,11.52,11.52V121.959A11.52,11.52,0,0,1,74.359,133.479ZM80.119,12.52a5.762,5.762,0,0,0-5.76-5.76H22.52a5.762,5.762,0,0,0-5.76,5.76V24.04H80.119Zm0,17.28H16.76v74.879H80.119Zm0,80.639H16.76v11.52a5.762,5.762,0,0,0,5.76,5.76H74.359a5.762,5.762,0,0,0,5.76-5.76Zm-31.68,14.4a5.76,5.76,0,1,1,5.76-5.76A5.762,5.762,0,0,1,48.44,124.839ZM28.28,38.44h5.76a2.879,2.879,0,0,1,2.88,2.88v5.76a2.879,2.879,0,0,1-2.88,2.88H28.28a2.879,2.879,0,0,1-2.88-2.88V41.32A2.879,2.879,0,0,1,28.28,38.44Zm0,20.16h5.76a2.879,2.879,0,0,1,2.88,2.88v5.76a2.877,2.877,0,0,1-2.88,2.88H28.28a2.877,2.877,0,0,1-2.88-2.88v-5.76A2.879,2.879,0,0,1,28.28,58.6Zm0,20.16h5.76a2.877,2.877,0,0,1,2.88,2.88V87.4a2.877,2.877,0,0,1-2.88,2.88H28.28A2.877,2.877,0,0,1,25.4,87.4v-5.76A2.877,2.877,0,0,1,28.28,78.759ZM45.56,38.44h5.76a2.879,2.879,0,0,1,2.88,2.88v5.76a2.879,2.879,0,0,1-2.88,2.88H45.56a2.879,2.879,0,0,1-2.88-2.88V41.32A2.879,2.879,0,0,1,45.56,38.44Zm0,20.16h5.76a2.879,2.879,0,0,1,2.88,2.88v5.76a2.877,2.877,0,0,1-2.88,2.88H45.56a2.877,2.877,0,0,1-2.88-2.88v-5.76A2.879,2.879,0,0,1,45.56,58.6Zm0,20.16h5.76a2.877,2.877,0,0,1,2.88,2.88V87.4a2.877,2.877,0,0,1-2.88,2.88H45.56a2.877,2.877,0,0,1-2.88-2.88v-5.76A2.877,2.877,0,0,1,45.56,78.759Zm17.28-40.32H68.6a2.879,2.879,0,0,1,2.88,2.88v5.76a2.879,2.879,0,0,1-2.88,2.88h-5.76a2.879,2.879,0,0,1-2.88-2.88V41.32A2.879,2.879,0,0,1,62.839,38.44Zm0,20.16H68.6a2.879,2.879,0,0,1,2.88,2.88v5.76a2.877,2.877,0,0,1-2.88,2.88h-5.76a2.877,2.877,0,0,1-2.88-2.88v-5.76A2.879,2.879,0,0,1,62.839,58.6ZM39.8,12.52h17.28a2.88,2.88,0,0,1,0,5.76H39.8a2.88,2.88,0,1,1,0-5.76Z" transform="translate(-11 -1)" fill="#fff" fill-rule="evenodd"/>
</svg>
