<svg xmlns="http://www.w3.org/2000/svg" width="149.121" height="132.893" viewBox="0 0 149.121 132.893">
  <path id="Icon2" d="M150.121,120.69h0A16.206,16.206,0,0,1,133.912,136.9H17.209A16.206,16.206,0,0,1,1,120.69V26.679A12.968,12.968,0,0,1,13.967,13.712H79.356L105.611,4.2a3.21,3.21,0,0,1,4.111,1.909l2.765,7.6h11.7a12.968,12.968,0,0,1,12.967,12.967v6.484h0a12.968,12.968,0,0,1,12.967,12.967ZM13.967,20.2h0a6.484,6.484,0,1,0,0,12.967H25.748c.042-.016.068-.052.11-.068l35.6-12.9Zm94.264.587L104.788,11.3h0l-6.649,2.409h.01L80.271,20.2h-.032L44.452,33.162H112.73Zm22.439,5.9a6.486,6.486,0,0,0-6.483-6.484h-9.346l4.714,12.967H130.67Zm6.484,12.967H13.967a12.822,12.822,0,0,1-6.484-1.8V120.69a9.727,9.727,0,0,0,9.725,9.725h116.7a9.725,9.725,0,0,0,9.725-9.725V98H130.67a12.967,12.967,0,0,1,0-25.934h12.967V46.129A6.486,6.486,0,0,0,137.154,39.646Zm6.484,51.868V78.547H130.67a6.484,6.484,0,0,0,0,12.967ZM130.67,81.789h6.484v6.484H130.67Z" transform="translate(-1 -4.006)" fill="#fff" fill-rule="evenodd"/>
</svg>
